<svg width="31" height="35" viewBox="0 0 31 35" fill="none" xmlns="http://www.w3.org/2000/svg">
<path d="M9.21738 31.4166C9.9668 32.3642 10.9218 33.1292 12.0101 33.6537C13.0985 34.1782 14.2918 34.4485 15.5 34.4442C16.7082 34.4485 17.9015 34.1782 18.9899 33.6537C20.0782 33.1292 21.0332 32.3642 21.7826 31.4166C17.6133 31.9817 13.3867 31.9817 9.21738 31.4166ZM27.1249 12.0555V13.2679C27.1249 14.7232 27.5383 16.1457 28.3167 17.3564L30.2249 20.3238C31.9661 23.0346 30.6365 26.7184 27.6071 27.5743C19.6914 29.8166 11.3086 29.8166 3.39286 27.5743C0.363493 26.7184 -0.966053 23.0346 0.775102 20.3238L2.68331 17.3564C3.46446 16.136 3.87871 14.7169 3.8768 13.2679V12.0555C3.8768 5.39741 9.08132 0 15.5 0C21.9187 0 27.1249 5.39741 27.1249 12.0555Z" fill="url(#paint0_linear_16_63)"/>
<defs>
<linearGradient id="paint0_linear_16_63" x1="15.5" y1="0" x2="43.5" y2="29.5" gradientUnits="userSpaceOnUse">
<stop stop-color="#00FFD1"/>
<stop offset="1" stop-color="white"/>
</linearGradient>
</defs>
</svg>
